<?xml version="1.0" standalone="no"?><!DOCTYPE svg PUBLIC "-//W3C//DTD SVG 1.1//EN" "http://www.w3.org/Graphics/SVG/1.1/DTD/svg11.dtd"><svg t="1616903114967" class="icon" viewBox="0 0 1024 1024" version="1.1" xmlns="http://www.w3.org/2000/svg" p-id="3070" xmlns:xlink="http://www.w3.org/1999/xlink" width="128" height="128"><defs><style type="text/css">@font-face { font-family: element-icons; src: url("chrome-extension://moombeodfomdpjnpocobemoiaemednkg/fonts/element-icons.woff") format("woff"), url("chrome-extension://moombeodfomdpjnpocobemoiaemednkg/fonts/element-icons.ttf ") format("truetype"); }
</style></defs>
<path d="M512 957.671444c-237.936053 0-431.558986-193.622933-431.558986-431.558985S274.063947 94.553473 512 94.553473c86.368247 0 169.914002 25.402426 241.323043 73.667034 14.112459 9.596472 18.063947 28.789416 8.467475 43.184124-9.596472 14.112459-28.789416 18.063947-43.184123 8.467475-60.965821-41.208379-132.657111-63.223815-206.606395-63.223815-203.783903 0-369.464168 165.680265-369.464168 369.464168s165.680265 369.464168 369.464168 369.464167c98.787211 0 191.364939-38.385888 261.362734-108.101433s108.101433-162.575524 108.101434-261.362734c0-17.2172 13.830209-31.047409 31.047409-31.047409s31.047409 13.830209 31.047409 31.047409c0 115.157663-44.877619 223.541345-126.44763 305.111356s-189.953693 126.44763-305.111356 126.447629z" p-id="3071"></path><path d="M822.191841 257.693495c-16.652701 8.185226-36.974642 1.411246-45.442117-15.241455l-77.054024-154.108049c-8.185226-16.652701-1.411246-36.974642 15.241455-45.442117 16.652701-8.185226 36.974642-1.411246 45.442117 15.241456l77.054025 154.108048c8.185226 16.652701 1.411246 36.974642-15.241456 45.442117z" p-id="3072"></path><path d="M622.641676 319.506064c-8.185226-16.652701-1.411246-36.974642 15.241455-45.442117l154.108049-77.054024c16.652701-8.185226 36.974642-1.411246 45.442117 15.241455 8.185226 16.652701 1.411246 36.974642-15.241456 45.442117l-154.108048 77.054024c-16.93495 8.185226-37.256891 1.411246-45.442117-15.241455z" p-id="3073"></path></svg> 